<?xml version="1.0" encoding="UTF-8" standalone="no"?>
<!DOCTYPE svg PUBLIC "-//W3C//DTD SVG 1.1//EN" "http://www.w3.org/Graphics/SVG/1.1/DTD/svg11.dtd">
<svg width="100%" height="100%" viewBox="0 0 231 443" version="1.1" xmlns="http://www.w3.org/2000/svg" xmlns:xlink="http://www.w3.org/1999/xlink" xml:space="preserve" xmlns:serif="http://www.serif.com/" style="fill-rule:evenodd;clip-rule:evenodd;stroke-linejoin:round;stroke-miterlimit:2;">
    <g transform="matrix(1,0,0,1,0,-0.877991)">
        <path d="M112.853,3.531C112.986,2.983 113.032,2.537 112.992,2.045L112.9,0.896L111.091,0.878L104.367,0.919L97.735,0.959L96.233,0.967L90.747,0.999L83.359,1.053L74.888,1.088L69.735,1.117L62.179,1.181L60.596,1.176L55.115,1.219L53.297,1.225L51.098,1.257L51.096,3.629C51.164,3.737 51.462,3.914 51.605,3.912L56.151,3.871L65.295,3.815L79.734,3.738L87.132,3.681L94.361,3.638L101.417,3.602L106.896,3.564L108.312,3.565L112.853,3.531ZM162.387,237.016C162.147,237.005 162.068,236.698 162.266,236.562C165.475,234.366 167.088,231.692 166.827,227.774C166.568,223.865 167.84,220.363 169.297,216.797L175.298,202.113C175.543,201.513 176.356,201.421 176.731,201.95C178.864,204.961 180.841,207.802 183.429,209.382L189.045,212.812C189.342,212.994 189.681,213.095 190.029,213.106L193.17,213.206C193.736,213.224 194.062,213.856 193.749,214.328L186.711,224.928C183.375,229.952 177.08,233.548 172.537,237.12C172.241,237.352 171.878,237.47 171.502,237.452L162.387,237.016ZM168.01,268.219C167.879,267.873 167.833,267.5 167.877,267.133L168.236,264.12C168.269,263.85 168.274,263.577 168.253,263.306L167.637,255.315C173.339,255.196 175.393,251.956 178.941,248.808C188.192,240.601 199.557,238.111 208.49,228.428L217.234,218.952C217.833,218.302 218.104,217.414 217.97,216.539L216.705,208.34C216.321,205.853 215.958,204.99 214.34,203.014L204.14,190.561L199.945,185.803L188.451,171.372C184.229,166.072 178.995,163.745 172.369,162.162C169.097,161.381 165.081,158.601 162.5,156.544L158.241,153.15C158.087,153.027 157.994,152.839 157.996,152.642C158.059,148.206 161.148,144.366 164.895,141.477C172.172,135.866 175.877,126.301 172.786,117.493C169.746,108.83 156.191,101.473 147.74,107.921L137.797,104.168C136.316,103.609 133.314,105.258 132.889,106.735C132.326,108.694 133.785,110.586 135.162,111.811L140.164,116.257C140.396,116.463 140.359,116.835 140.091,116.992L132.719,121.307C131.539,121.997 132.346,125.004 133.172,126.14L128.528,137.714C128.367,138.116 128.479,138.577 128.81,138.858L133.967,143.259C134.361,143.594 134.543,144.116 134.444,144.624L133.606,148.924C133.515,149.391 132.981,149.622 132.581,149.365C131.293,148.537 130.565,147.975 130.003,148.166L127.701,148.949C127.153,149.135 126.549,149.055 126.069,148.732L118.317,143.521C118.119,143.389 117.903,143.286 117.675,143.217L112.225,141.559C111.935,141.47 111.675,141.295 111.483,141.059C107.921,136.695 104.58,132.761 100.315,129.375C98.309,127.783 96.928,126.743 96.128,124.155C95.852,123.264 94.794,121.203 93.934,121.254L91.332,121.408C91.069,121.424 90.86,121.195 90.896,120.934C93.01,105.489 80.041,89.981 85.139,74.856C86.133,71.906 88.267,69.317 88.509,65.958L89.371,54.016C89.409,53.488 88.999,53.035 88.469,53.02L86.756,52.972C86.5,52.965 86.307,52.735 86.346,52.481L85.103,48.483L85.096,45.113L85.079,41.532L85.08,39.121L85.084,35.721L85.068,23.539L85.047,21.473L85.052,20.636C85.059,19.6 85.033,18.593 85.269,17.549C85.568,16.221 86.14,14.882 86.956,13.759C87.507,13.002 88.199,12.361 88.9,11.74C90.192,10.596 92.759,9.654 94.466,9.617L96.543,9.572L99.544,9.544L102.095,9.502C103.476,9.479 104.809,9.529 106.172,9.4C107.984,9.228 109.726,8.551 111.052,7.334L111.668,6.768L112.802,5.493C112.846,5.208 112.343,5.053 112.005,5.055L109.585,5.068L102.367,5.118L95.144,5.15L87.007,5.201L81.022,5.235L74.627,5.282L67.902,5.318L60.173,5.353L52.202,5.416C51.843,5.419 51.481,5.303 51.229,5.705C52.504,7.948 55.836,9.766 58.346,9.744L69.121,9.649C71.513,9.628 73.706,10.559 75.564,12.026C77.365,13.449 78.981,16.573 79.014,18.83L79.081,23.397L79.099,38.135L79.106,42.804L79.122,47.921C78.979,48.051 78.81,48.151 78.602,48.161C76.991,48.241 75.404,48.48 74.778,49.255C74.136,50.05 73.247,52.467 72.791,53.456C67.161,60.168 65.86,69.498 70.941,77.367C71.116,77.638 71.191,77.966 71.135,78.284C67.934,96.512 64.262,113.519 69.937,131.945L76.817,145.231C76.634,145.442 76.289,145.849 76.466,146.065L90.935,163.731L100.768,175.852C101.004,176.143 101.112,176.515 101.071,176.888C98.967,196.073 102.91,215.414 100.748,233.301C100.447,235.784 99.94,237.78 102.012,239.268C102.922,239.921 103.246,241.12 102.902,242.186C94.874,267.131 91.935,293.847 91.951,320.326L91.964,342.019C91.964,342.103 91.968,342.187 91.975,342.271L92.867,352.432C92.901,352.824 92.872,353.222 92.772,353.602C91.858,357.055 90.406,360.283 90.292,363.589L89.922,374.366L89.646,382.268C89.452,387.799 87.746,393.492 85.764,398.646C85.58,399.125 85.586,399.653 85.783,400.127L87.125,403.343C87.434,404.082 85.559,405.641 85.259,406.402C84.065,411.019 81.585,415.56 78.149,419.099C69.818,427.681 59.968,422.684 59.738,433.83C59.716,434.906 60.38,435.885 61.399,436.23C70.929,439.452 83.811,438.052 94.046,434.362C94.501,434.198 94.973,434.101 95.455,434.08L106.016,433.62C108.086,433.531 112.556,430.966 112.156,428.833C110.561,420.345 111.288,413.191 114.059,404.962C115.247,401.433 113.853,395.969 114.751,392.23C117.71,379.904 120.451,368.196 120.118,355.365C120.031,352.019 120.468,348.823 120.999,345.658L122.607,336.07C124.89,322.458 127.877,309.589 132.533,295.99C132.679,295.565 133.266,295.512 133.481,295.907L138.046,304.296L159.254,352.703C159.32,352.854 159.377,353.01 159.423,353.169L166.114,376.046C169.315,386.989 172.8,396.611 179.086,405.996C179.261,406.257 179.373,406.553 179.405,406.866C179.858,411.299 179.867,416.884 183.941,419.973C184.418,420.335 184.683,420.912 184.663,421.51L184.373,430.245C184.263,433.577 189.674,435.922 192.744,435.218L195.554,439.197C196.127,440.008 196.931,440.626 197.867,440.957C206.824,444.135 220.256,443.315 220.167,440.487L220.074,437.527C219.773,427.979 210.166,427.677 207.546,418.388C206.501,414.681 206.562,411.145 206.51,407.371C206.497,406.433 206.206,405.519 205.686,404.738L202.265,399.599C201.979,399.17 201.779,398.69 201.674,398.185L194.241,362.436C192.966,356.306 189.787,351.518 187.393,345.885C184.79,339.761 183.226,332.484 181.841,325.736L172.425,279.859L168.01,268.219Z" style="fill:white;fill-rule:nonzero;"/>
        <path d="M230.182,69.938L230.182,15.901L219.405,15.901L219.405,42.313L208.173,15.901L198.762,15.901L198.762,69.938L209.539,69.938L209.539,43.527L220.999,69.938L230.182,69.938ZM182.78,42.92C182.78,49.447 182.628,56.201 181.338,58.706C180.731,59.92 179.592,60.831 177.619,60.831C175.646,60.831 174.659,59.92 174.052,58.706C172.762,56.201 172.61,49.447 172.61,42.92C172.61,36.393 172.762,29.638 174.052,27.134C174.659,25.92 175.646,25.009 177.619,25.009C179.592,25.009 180.731,25.92 181.338,27.134C182.628,29.638 182.78,36.393 182.78,42.92ZM193.557,42.92C193.557,35.634 193.86,25.844 189.534,20.683C187.03,17.723 183.69,15.294 177.619,15.294C171.547,15.294 168.36,17.723 165.855,20.683C161.529,25.844 161.833,35.634 161.833,42.92C161.833,50.206 161.529,59.996 165.855,65.157C168.36,68.116 171.547,70.545 177.619,70.545C183.69,70.545 187.03,68.116 189.534,65.157C193.86,59.996 193.557,50.206 193.557,42.92ZM158.29,54.532C158.29,44.741 156.317,41.63 149.486,38.897L142.732,36.165C139.62,34.875 139.013,33.888 139.013,30.473C139.013,28.652 139.24,27.513 139.924,26.603C140.531,25.768 141.517,25.161 143.035,25.161C144.629,25.161 145.54,25.692 146.147,26.527C147.058,27.741 147.058,29.487 147.058,31.384L157.834,31.384C157.834,25.92 156.62,21.593 153.66,18.861C151.308,16.66 147.816,15.446 143.035,15.446C138.937,15.446 135.673,16.66 133.093,18.861C129.83,21.669 128.235,25.844 128.235,30.853C128.235,39.277 130.513,42.161 135.977,44.438L142.807,47.246C146.678,48.84 147.513,49.75 147.513,54.911C147.513,57.112 147.209,58.554 146.45,59.465C145.767,60.375 144.705,60.831 143.035,60.831C141.365,60.831 140.303,60.224 139.696,59.541C138.709,58.402 138.557,56.808 138.557,54.607L127.781,54.607C127.781,60.148 128.69,63.942 131.348,66.599C133.776,69.027 137.723,70.545 143.035,70.545C148.272,70.545 152.37,68.875 154.799,66.523C157.607,63.791 158.29,59.996 158.29,54.532ZM124.222,54.532C124.222,44.741 122.249,41.63 115.418,38.897L108.664,36.165C105.552,34.875 104.945,33.888 104.945,30.473C104.945,28.652 105.173,27.513 105.856,26.603C106.463,25.768 107.45,25.161 108.967,25.161C110.561,25.161 111.472,25.692 112.079,26.527C112.99,27.741 112.99,29.487 112.99,31.384L123.767,31.384C123.767,25.92 122.552,21.593 119.593,18.861C117.24,16.66 113.749,15.446 108.967,15.446C104.869,15.446 101.606,16.66 99.025,18.861C95.762,21.669 94.168,25.844 94.168,30.853C94.168,39.277 96.445,42.161 101.909,44.438L108.74,47.246C112.61,48.84 113.445,49.75 113.445,54.911C113.445,57.112 113.142,58.554 112.383,59.465C111.7,60.375 110.637,60.831 108.967,60.831C107.298,60.831 106.235,60.224 105.628,59.541C104.642,58.402 104.49,56.808 104.49,54.607L93.713,54.607C93.713,60.148 94.624,63.942 97.28,66.599C99.708,69.027 103.655,70.545 108.967,70.545C114.204,70.545 118.302,68.875 120.731,66.523C123.539,63.791 124.222,59.996 124.222,54.532ZM65.017,55.442L65.017,15.901L54.241,15.901L54.241,55.974C54.241,59.465 52.192,60.831 49.763,60.831C47.334,60.831 45.285,59.465 45.285,55.974L45.285,15.901L34.508,15.901L34.508,55.442C34.508,59.768 35.95,63.411 38.531,66.067C41.415,69.027 45.209,70.545 49.763,70.545C54.317,70.545 58.111,69.027 60.995,66.067C63.576,63.411 65.017,59.768 65.017,55.442ZM19.656,33.13C19.656,36.545 19.428,40.719 15.33,40.719L10.776,40.719L10.776,25.616L15.33,25.616C19.428,25.616 19.656,29.714 19.656,33.13ZM30.433,33.054C30.433,22.504 26.942,15.901 15.254,15.901L0,15.901L0,69.938L10.776,69.938L10.776,50.433L15.254,50.433C26.942,50.433 30.433,43.679 30.433,33.054Z" style="fill:white;fill-rule:nonzero;"/>
    </g>
</svg>
